<svg width="100" height="100" viewBox="0 0 176 184" fill="none" xmlns="http://www.w3.org/2000/svg">
<g filter="url(#filter0_di_4442_803)">
<path d="M158.423 15.8418C153.992 11.1714 146.833 11.1714 142.401 15.8418L89.7353 71.2297C88.1574 72.8892 85.5111 72.8878 83.9349 71.2268L31.2662 15.722C26.8345 11.0516 19.6755 11.0516 15.2437 15.722C10.812 20.3924 10.812 27.9369 15.2437 32.6073L68.1984 88.4134C69.663 89.9568 69.663 92.3766 68.1984 93.92L15.2437 149.726C10.812 154.396 10.812 161.941 15.2437 166.611C19.6755 171.282 26.8345 171.282 31.2662 166.611L83.932 111.11C85.5093 109.447 88.1578 109.448 89.7351 111.11L142.401 166.611C146.833 171.282 153.992 171.282 158.423 166.611C162.855 161.941 162.855 154.396 158.423 149.726L105.469 93.92C104.004 92.3766 104.004 89.9568 105.469 88.4134L158.423 32.6073C162.741 28.0566 162.741 20.3924 158.423 15.8418Z" fill="#60C2AA"/>
<path d="M158.677 15.6009C154.108 10.7851 146.717 10.785 142.147 15.6006L142.147 15.6009L89.4817 70.9885C88.0418 72.5028 85.6271 72.5016 84.1888 70.9858L31.5201 15.4811C26.9503 10.6653 19.5596 10.6653 14.9898 15.4811C10.4299 20.2865 10.4299 28.0427 14.9898 32.8482L67.9445 88.6543C69.2809 90.0626 69.2809 92.2707 67.9445 93.6791L14.9898 149.485C10.4299 154.291 10.4299 162.047 14.9898 166.852C19.5596 171.668 26.9503 171.668 31.5201 166.852L84.1859 111.351C85.6251 109.834 88.042 109.834 89.4812 111.351L142.147 166.852C146.717 171.668 154.107 171.668 158.677 166.852C163.237 162.047 163.237 154.291 158.677 149.485L105.723 93.6791C104.386 92.2707 104.386 90.0626 105.723 88.6543L158.677 32.8482C163.124 28.1625 163.124 20.2865 158.677 15.6009Z" stroke="white" stroke-width="0.7"/>
</g>
<defs>
<filter id="filter0_di_4442_803" x="0.219971" y="0.519287" width="175.227" height="183.295" filterUnits="userSpaceOnUse" color-interpolation-filters="sRGB">
<feFlood flood-opacity="0" result="BackgroundImageFix"/>
<feColorMatrix in="SourceAlpha" type="matrix" values="0 0 0 0 0 0 0 0 0 0 0 0 0 0 0 0 0 0 127 0" result="hardAlpha"/>
<feOffset dx="1" dy="1"/>
<feGaussianBlur stdDeviation="6"/>
<feColorMatrix type="matrix" values="0 0 0 0 0.420718 0 0 0 0 0.290978 0 0 0 0 0.338156 0 0 0 0.2 0"/>
<feBlend mode="normal" in2="BackgroundImageFix" result="effect1_dropShadow_4442_803"/>
<feBlend mode="normal" in="SourceGraphic" in2="effect1_dropShadow_4442_803" result="shape"/>
<feColorMatrix in="SourceAlpha" type="matrix" values="0 0 0 0 0 0 0 0 0 0 0 0 0 0 0 0 0 0 127 0" result="hardAlpha"/>
<feOffset dx="2" dy="2"/>
<feGaussianBlur stdDeviation="5"/>
<feComposite in2="hardAlpha" operator="arithmetic" k2="-1" k3="1"/>
<feColorMatrix type="matrix" values="0 0 0 0 0.311889 0 0 0 0 0.612384 0 0 0 0 0.54168 0 0 0 0.6 0"/>
<feBlend mode="normal" in2="shape" result="effect2_innerShadow_4442_803"/>
</filter>
</defs>
</svg>
